<?xml version="1.0" encoding="utf-8"?>
<!-- Generator: Adobe Illustrator 21.0.2, SVG Export Plug-In . SVG Version: 6.00 Build 0)  -->
<svg version="1.1" id="Layer_1" xmlns="http://www.w3.org/2000/svg" xmlns:xlink="http://www.w3.org/1999/xlink" x="0px" y="0px"
	 viewBox="0 0 199.851 174" enable-background="new 0 0 199.851 174" xml:space="preserve">
<g>
	<path fill="#5CA4D7" d="M132.702,6.675l60.087,21.196l-8.518,36.556l-34.099-10.176l-7.716-2.303V60l0,108l-85.06,0V60v-8.052
		l-7.716,2.303L15.581,64.427L7.063,27.871L67.149,6.675C72.293,9.93,84.018,16,99.926,16S127.558,9.93,132.702,6.675 M131.817,0
		c0,0-12.479,10-31.891,10S68.035,0,68.035,0L0,24l11.185,48l40.211-12v114l97.06,0l0-114l40.211,12l11.185-48L131.817,0L131.817,0z
		"/>
</g>
</svg>
